<svg width="73" height="60" viewBox="0 0 73 60" fill="none" xmlns="http://www.w3.org/2000/svg">
<path d="M50.3926 0.763184C54.4995 0.763238 58.2648 2.50526 60.9072 5.31885L61.0977 5.521L61.3701 5.46631C64.3486 4.87137 67.17 3.86756 69.7744 2.47607C68.5799 5.28634 66.5147 7.61803 63.9082 9.17432L64.2275 10.0991C66.6887 9.78632 69.0702 9.20472 71.3428 8.35791C69.5458 10.7462 67.433 12.8445 64.9922 14.5767L64.7676 14.7349L64.7822 15.0093C64.8138 15.6355 64.8359 16.2619 64.8359 16.9087C64.8359 36.3728 50.018 58.7914 22.9443 58.7915C15.3604 58.7915 8.28102 56.8031 2.15625 53.2778C2.65258 53.2994 3.15273 53.312 3.66016 53.312C10.7411 53.312 17.2825 50.8833 22.4346 46.853L23.5391 45.9897L22.1377 45.9595C16.1428 45.8299 11.0533 42.0175 8.97266 36.7212C9.6561 36.8097 10.351 36.8384 11.0293 36.8384C12.4383 36.8384 13.8049 36.6755 15.0664 36.3306L15.0352 35.3579C8.69959 34.0619 3.82013 28.5726 3.5166 21.8765C5.39801 22.7804 7.53855 23.3429 9.72168 23.3843L11.4268 23.4165L10.0088 22.4692C6.18203 19.9107 3.61539 15.491 3.61523 10.5073C3.61523 8.11049 4.21027 5.86656 5.24219 3.86377C12.6805 12.6874 23.5618 18.4588 35.8291 19.0571L36.4863 19.0894L36.3408 18.4468C36.1058 17.4108 36.0078 16.3137 36.0078 15.1606C36.008 7.23053 42.4245 0.763184 50.3926 0.763184Z" fill="#1A3453" stroke="black"/>
</svg>
